<?xml version="1.0" standalone="no"?>
<!DOCTYPE svg PUBLIC "-//W3C//DTD SVG 20010904//EN"
 "http://www.w3.org/TR/2001/REC-SVG-20010904/DTD/svg10.dtd">
<svg version="1.0" xmlns="http://www.w3.org/2000/svg"
 width="700.000000pt" height="700.000000pt" viewBox="0 0 700.000000 700.000000"
 preserveAspectRatio="xMidYMid meet">
<metadata>
Created by potrace 1.11, written by Peter Selinger 2001-2013
</metadata>
<g transform="translate(0.000000,700.000000) scale(0.100000,-0.100000)"
fill="#000000" stroke="none">
<path d="M1688 6375 c-2 -2 -30 -6 -63 -8 -213 -17 -485 -97 -670 -197 -189
-103 -399 -290 -527 -470 -75 -105 -182 -313 -222 -431 -80 -239 -118 -486
-118 -787 -1 -212 20 -442 52 -562 5 -19 11 -47 14 -62 2 -15 7 -31 10 -36 3
-5 7 -19 10 -33 19 -103 136 -367 217 -489 217 -329 537 -560 914 -660 44 -12
94 -24 110 -26 17 -3 46 -9 65 -14 32 -8 57 -11 200 -25 55 -6 367 -7 395 -1
11 2 47 7 80 10 79 9 248 43 310 62 196 61 400 154 530 240 l55 37 0 259 0
260 -62 -54 c-132 -113 -243 -186 -392 -258 -109 -51 -300 -115 -383 -126 -26
-3 -51 -8 -54 -10 -34 -20 -486 -20 -519 1 -3 2 -25 6 -49 10 -72 11 -210 54
-290 91 -209 97 -365 241 -484 449 -40 69 -106 219 -111 250 -1 5 -4 15 -8 20
-9 14 -56 230 -63 290 -4 28 -9 61 -12 75 -12 59 -10 480 3 590 60 503 254
843 592 1038 108 63 267 120 382 137 128 20 167 22 305 23 305 1 530 -58 821
-218 50 -27 205 -140 273 -198 l51 -44 0 261 0 261 -67 44 c-179 114 -369 193
-603 249 -58 14 -129 29 -159 32 -30 4 -63 9 -75 12 -23 6 -452 13 -458 8z"/>
<path d="M3822 4478 c0 -1690 2 -1838 17 -1839 89 -3 452 0 458 4 5 3 8 694 8
1535 0 842 1 1530 1 1529 6 -6 100 -182 319 -597 165 -312 208 -394 305 -575
20 -38 65 -124 100 -190 35 -66 66 -124 70 -130 4 -5 47 -86 95 -180 48 -93
91 -174 95 -180 4 -5 42 -77 85 -160 43 -82 81 -154 85 -160 4 -5 42 -77 85
-160 43 -82 90 -172 105 -200 15 -27 56 -104 91 -170 35 -66 85 -160 111 -210
27 -49 56 -105 65 -122 16 -32 18 -33 87 -34 66 0 385 0 536 1 l65 0 0 1837 0
1838 -238 0 c-203 0 -238 -2 -242 -15 -2 -8 -4 -696 -4 -1528 1 -832 -1 -1515
-3 -1517 -2 -2 -23 33 -46 78 -23 45 -84 161 -135 257 -203 383 -345 649 -429
810 -28 52 -63 118 -78 145 -15 28 -53 100 -85 160 -65 123 -105 199 -227 430
-47 88 -114 214 -148 280 -35 66 -66 125 -70 130 -4 6 -47 87 -95 180 -48 94
-91 175 -95 180 -4 6 -38 69 -75 140 -72 138 -136 257 -142 265 -2 2 -154 5
-337 5 l-334 0 0 -1837z"/>
</g>
</svg>
